<?xml version="1.0" encoding="utf-8"?>
<!-- Generator: Adobe Illustrator 22.1.0, SVG Export Plug-In . SVG Version: 6.00 Build 0)  -->
<svg version="1.1" id="Layer_1" xmlns:sketch="http://www.bohemiancoding.com/sketch/ns"
	 xmlns="http://www.w3.org/2000/svg" xmlns:xlink="http://www.w3.org/1999/xlink" x="0px" y="0px" viewBox="0 0 25 25"
	 style="enable-background:new 0 0 25 25;" xml:space="preserve">
<style type="text/css">
	.st0{fill:#6B717E;}
</style>
<path class="st0" d="M23.3,20.3l-7.8-7.8l7.8-7.8c0.8-0.8,0.8-2.2,0-3c-0.8-0.8-2.2-0.8-3,0l-7.8,7.8L4.7,1.7c-0.8-0.8-2.2-0.8-3,0
	s-0.8,2.2,0,3l7.8,7.8l-7.8,7.8c-0.8,0.8-0.8,2.2,0,3c0.8,0.8,2.2,0.8,3,0l7.8-7.8l7.8,7.8c0.8,0.8,2.2,0.8,3,0
	C24.1,22.5,24.1,21.1,23.3,20.3z"/>
</svg>
